<svg width="24" height="24" viewBox="0 0 24 24" fill="none" xmlns="http://www.w3.org/2000/svg">
<path d="M18.3126 8.06569L18.3126 8.06571C18.6085 8.4297 18.5528 8.96455 18.1892 9.26127L18.1891 9.2614L13.7451 12.8734L13.7442 12.8741C13.1642 13.3344 12.4703 13.5648 11.777 13.5648C11.0858 13.5648 10.3969 13.3364 9.82091 12.8802L9.82023 12.8797L5.3353 9.2637L18.3126 8.06569ZM18.3126 8.06569C18.0159 7.70112 17.4809 7.6441 17.1157 7.94235L12.6808 11.5475C12.6807 11.5476 12.6805 11.5477 12.6804 11.5478C12.1498 11.9686 11.4087 11.9684 10.8825 11.5517C10.8823 11.5516 10.8822 11.5515 10.8821 11.5514L6.40176 7.93994L6.40168 7.93988C6.03656 7.6462 5.50193 7.70426 5.20641 8.06771L5.20608 8.06812M18.3126 8.06569L5.20608 8.06812M5.20608 8.06812C4.9126 8.43299 4.96915 8.96891 5.33523 9.26365L5.20608 8.06812ZM20.7336 19.9508L20.7336 19.9508C21.9394 18.748 22.6 17.0556 22.6 15.188V8.32C22.6 4.66934 20.0515 1.9 16.659 1.9H6.841C3.4485 1.9 0.9 4.66934 0.9 8.32V15.188C0.9 17.0556 1.56056 18.748 2.76638 19.9508L2.76642 19.9508C3.84974 21.0301 5.25337 21.6 6.822 21.6H16.675C18.2466 21.6 19.6512 21.0291 20.7336 19.9508ZM3.96666 18.7462L3.96659 18.7462C3.08802 17.8705 2.6 16.6083 2.6 15.188V8.32C2.6 5.57213 4.39081 3.6 6.841 3.6H16.659C19.1092 3.6 20.9 5.57213 20.9 8.32V15.188C20.9 16.6084 20.4129 17.8705 19.5334 18.7461L19.5333 18.7462C18.7777 19.5009 17.7926 19.8993 16.6781 19.9L16.6738 19.8996L16.6737 19.8996C16.6711 19.8994 16.6629 19.8987 16.6532 19.8995C16.6518 19.8996 16.6503 19.8998 16.6485 19.9H6.825C5.71022 19.9 4.72303 19.5016 3.96666 18.7462ZM16.6798 19.9002L16.6798 19.9002L16.6798 19.9002Z" fill="#C9D3F3" stroke="#C9D3F3" stroke-width="0.2"/>
</svg>
