<svg width="24" height="25" viewBox="0 0 24 25" fill="none" xmlns="http://www.w3.org/2000/svg">
<path d="M15.4995 7.5625L18.9995 4.0625M20.9995 2.0625L18.9995 4.0625L20.9995 2.0625ZM11.3895 11.6725C11.9059 12.182 12.3163 12.7885 12.5973 13.4573C12.8782 14.126 13.0241 14.8438 13.0266 15.5691C13.029 16.2945 12.8879 17.0132 12.6115 17.6838C12.335 18.3544 11.9286 18.9637 11.4157 19.4766C10.9028 19.9896 10.2935 20.3959 9.62284 20.6724C8.95223 20.9489 8.23354 21.09 7.50817 21.0875C6.78281 21.0851 6.06509 20.9392 5.39633 20.6583C4.72758 20.3773 4.12101 19.9668 3.61154 19.4505C2.60967 18.4132 2.0553 17.0239 2.06783 15.5818C2.08037 14.1397 2.6588 12.7602 3.67854 11.7405C4.69828 10.7208 6.07775 10.1423 7.51984 10.1298C8.96192 10.1173 10.3512 10.6716 11.3885 11.6735L11.3895 11.6725ZM11.3895 11.6725L15.4995 7.5625L11.3895 11.6725ZM15.4995 7.5625L18.4995 10.5625L21.9995 7.0625L18.9995 4.0625L15.4995 7.5625Z" stroke="#C9D3F3" stroke-width="2" stroke-linecap="round" stroke-linejoin="round"/>
</svg>
