<svg width="54" height="54" viewBox="0 0 54 54" fill="none" xmlns="http://www.w3.org/2000/svg">
<circle opacity="0.1" cx="27" cy="27" r="27" fill="#54CCA1"/>
<rect x="5" y="5" width="44" height="44" rx="22" fill="#54CCA1"/>
<path d="M19.2 23.55V20.55C19.2 19.7213 19.8712 19.05 20.7 19.05C21.5287 19.05 22.2 19.7213 22.2 20.55V23.55C22.2 24.3788 21.5287 25.05 20.7 25.05C19.8712 25.05 19.2 24.3788 19.2 23.55Z" fill="white"/>
<path d="M29.7 22.05H26.7V18.3C26.7 17.4713 27.3712 16.8 28.2 16.8C29.0287 16.8 29.7 17.4713 29.7 18.3V22.05Z" fill="white"/>
<path d="M33.45 22.05H30.45V19.05C30.45 18.2213 31.1212 17.55 31.95 17.55C32.7787 17.55 33.45 18.2213 33.45 19.05V22.05Z" fill="white"/>
<path d="M34.2 25.05V29.0573C34.2 29.853 33.8842 30.6158 33.321 31.1783L31.6387 32.8605C31.3582 33.1418 31.2 33.5235 31.2 33.921V37.8H21.45V33.8003C21.45 33.4755 21.345 33.1598 21.15 32.9003L19.8 31.1003C19.4107 30.5813 19.2 29.949 19.2 29.3003V26.133C19.6432 26.391 20.151 26.55 20.7 26.55C21.4132 26.55 22.0597 26.2898 22.575 25.8728C23.0902 26.2898 23.7367 26.55 24.45 26.55C24.8242 26.55 25.1775 26.472 25.506 26.343C25.9275 27.2175 26.7502 27.8625 27.7425 28.0155C26.5515 29.25 25.95 30.5175 25.95 31.8C25.95 32.2148 26.2852 32.55 26.7 32.55C27.1147 32.55 27.45 32.2148 27.45 31.8C27.45 30.5558 28.3582 29.244 30.15 27.9C30.4087 27.7065 30.5137 27.369 30.4117 27.063C30.309 26.7563 30.0232 26.55 29.7 26.55H28.2C27.3727 26.55 26.7 25.8773 26.7 25.05V23.55H32.7C33.5287 23.55 34.2 24.2213 34.2 25.05Z" fill="white"/>
<path d="M22.95 23.55V19.05C22.95 18.2213 23.6212 17.55 24.45 17.55C25.2787 17.55 25.95 18.2213 25.95 19.05V22.05C25.5352 22.05 25.2 22.386 25.2 22.8V24.8423C24.9787 24.9705 24.7245 25.05 24.45 25.05C23.6212 25.05 22.95 24.3788 22.95 23.55Z" fill="white"/>
</svg>
