<svg width="130" height="24" viewBox="0 0 130 24" fill="none" xmlns="http://www.w3.org/2000/svg">
<g clip-path="url(#clip0_3_2441)">
<path d="M13.3258 9.406C13.3258 6.81119 14.7282 5.51459 17.533 5.51459H18.3875L21.0358 0.648315H16.5044L11.3261 10.4561V0.648315H7.11893V4.94312L4.20715 10.4561V0.648315H0V18.4854H4.20715L7.11893 13.0109V18.4854H11.3261L13.3418 14.7813C13.3306 14.6164 13.3258 14.4452 13.3258 14.2691V9.406Z" fill="#54CCA1"/>
<path d="M24.005 13.6224C25.9473 13.6224 26.9168 12.6491 26.9168 10.7026V9.406C26.9168 6.81119 25.5144 5.51459 22.7097 5.51459H18.3859L13.3418 14.7829C13.5063 17.2513 14.9039 18.487 17.5314 18.487H26.5926V14.5812L17.5314 14.594V13.6224H24.005ZM17.533 9.72935C17.533 9.08105 17.8572 8.7529 18.5041 8.74329L21.7529 8.7561C22.3918 8.7561 22.7113 9.08425 22.7113 9.74216V10.0543C22.7192 10.7026 22.3966 11.0276 21.7401 11.0276H18.5041C17.8572 11.0276 17.533 10.7026 17.533 10.0543V9.72935Z" fill="#54CCA1"/>
<path d="M34.5325 19.7836C34.5325 22.5945 33.1301 24 30.3254 24H27.4136V20.1086H28.7073C29.7855 20.1086 30.3254 19.5675 30.3254 18.487L30.3381 7.91569L34.5325 5.51457V19.7836ZM30.3254 1.60074H34.5325V4.21636L30.3254 6.61748V1.60074Z" fill="#54CCA1"/>
<path d="M49.4189 5.51297V14.2691C49.4189 17.08 48.0165 18.4854 45.2117 18.4854H40.0334C37.2287 18.4854 35.8263 17.08 35.8263 14.2691V5.51297H40.0334V13.2974C40.0334 14.3779 40.5733 14.919 41.6515 14.919H43.2695C44.3476 14.919 44.8875 14.3779 44.8875 13.2974V5.51297H49.4189Z" fill="#54CCA1"/>
<path d="M63.9953 9.406H55.8925C55.4692 9.406 55.2584 9.6221 55.2584 10.0543C55.2504 10.4865 55.4613 10.7026 55.8925 10.7026H61.0708C63.2287 10.7026 64.3068 11.7751 64.3068 13.9201V14.2963C64.3068 17.0896 62.9092 18.487 60.1124 18.487H50.727V14.2707H59.309C59.6205 14.2707 59.7786 14.1058 59.7882 13.7776C59.7802 13.4575 59.6205 13.2974 59.309 13.2974H53.963C51.7972 13.2974 50.7142 12.2169 50.7142 10.0543L50.727 9.406C50.727 6.81119 52.1246 5.51459 54.9214 5.51459H63.9953V9.406Z" fill="#54CCA1"/>
<path d="M67.2186 2.91815H71.4257V5.52577L74.0149 5.51296V9.40438L71.4257 9.41718L71.413 12.6475C71.421 13.728 71.9656 14.269 73.0438 14.269H74.3375L74.3503 18.4854H71.4385C68.6338 18.4854 67.2314 17.1888 67.2314 14.594L67.2186 9.40438H65.6006L65.6134 5.51296H67.2186V2.91815Z" fill="#54CCA1"/>
<path d="M89.2239 19.7836C89.2239 22.5946 87.8215 24 85.0167 24H75.7878V19.7836H84.6941V18.487H79.84C77.0353 18.487 75.6329 17.0816 75.6329 14.2707V9.406C75.6329 6.81119 77.0353 5.51459 79.84 5.51459H85.0183C87.8231 5.51459 89.2255 6.81119 89.2255 9.406V19.7836H89.2239ZM83.0745 14.9318C84.1526 14.9238 84.6925 14.3827 84.6925 13.3102L84.6797 10.7154C84.6797 9.63491 84.1446 9.08906 83.0745 9.08105H81.4564C80.3783 9.08906 79.8384 9.63011 79.8384 10.7026V13.2974C79.8384 14.3779 80.3783 14.919 81.4564 14.919L83.0745 14.9318Z" fill="#54CCA1"/>
<path d="M90.5176 9.406C90.5176 6.81119 91.92 5.51459 94.7248 5.51459H99.9031V9.08265H96.3428C95.2647 9.08265 94.7248 9.62371 94.7248 10.7042V18.4886H90.5176V9.406Z" fill="#54CCA1"/>
<path d="M105.404 18.487C102.599 18.487 101.197 17.0816 101.197 14.2707V9.406C101.205 6.81119 102.604 5.51459 105.391 5.51459H114.465V14.919H115.112V18.487H105.404ZM108.64 14.919C109.718 14.919 110.258 14.3779 110.258 13.2974V10.7026C110.258 9.6221 109.718 9.08105 108.64 9.08105H107.022C105.952 9.08105 105.412 9.6221 105.404 10.7026V13.2974C105.404 14.3779 105.944 14.919 107.022 14.919H108.64Z" fill="#54CCA1"/>
<path d="M116.732 14.2707V0H120.939V5.51297H125.806C128.593 5.51297 129.99 6.80958 130 9.40439V14.2691C130 17.08 128.598 18.4854 125.793 18.4854H120.939C118.134 18.487 116.732 17.0816 116.732 14.2707ZM124.175 14.919C125.253 14.919 125.793 14.3779 125.793 13.2974V10.7026C125.793 9.62209 125.253 9.08104 124.175 9.08104H122.557C121.487 9.08104 120.947 9.62209 120.939 10.7026V13.2974C120.939 14.3779 121.479 14.919 122.557 14.919H124.175Z" fill="#54CCA1"/>
</g>
<defs>
<clipPath id="clip0_3_2441">
<rect width="130" height="24" fill="white"/>
</clipPath>
</defs>
</svg>
