<svg width="218" height="40" viewBox="0 0 218 40" fill="none" xmlns="http://www.w3.org/2000/svg">
<g clip-path="url(#clip0_22_2098)">
<path d="M22.2584 15.6767C22.2584 11.352 24.6008 9.19102 29.2857 9.19102H30.713L35.1364 1.08057H27.5675L18.9182 17.4269V1.08057H11.8909V8.23857L7.02728 17.4269V1.08057H0V30.8091H7.02728L11.8909 21.6848V30.8091H18.9182L22.2851 24.6356C22.2664 24.3608 22.2584 24.0753 22.2584 23.7818V15.6767Z" fill="#54CCA1"/>
<path d="M40.0961 22.7039C43.3403 22.7039 44.9597 21.0818 44.9597 17.8376V15.6766C44.9597 11.3519 42.6173 9.19092 37.9325 9.19092H30.7104L22.2852 24.6381C22.56 28.752 24.8944 30.8117 29.2831 30.8117H44.4182V24.302L29.2831 24.3233V22.7039H40.0961ZM29.2858 16.2155C29.2858 15.135 29.8273 14.5881 30.9078 14.5721L36.3344 14.5934C37.4015 14.5934 37.9351 15.1404 37.9351 16.2369V16.7571C37.9485 17.8376 37.4095 18.3792 36.313 18.3792H30.9078C29.8273 18.3792 29.2858 17.8376 29.2858 16.7571V16.2155Z" fill="#54CCA1"/>
<path d="M57.6803 32.9728C57.6803 37.6576 55.3379 40.0001 50.653 40.0001H45.7894V33.5144H47.9504C49.7513 33.5144 50.653 32.6126 50.653 30.8118L50.6744 13.1929L57.6803 9.19101V32.9728ZM50.653 2.66797H57.6803V7.02734L50.653 11.0292V2.66797Z" fill="#54CCA1"/>
<path d="M82.5452 9.18823V23.7817C82.5452 28.4666 80.2028 30.809 75.518 30.809H66.8686C62.1837 30.809 59.8413 28.4666 59.8413 23.7817V9.18823H66.8686V22.1623C66.8686 23.9631 67.7703 24.8649 69.5712 24.8649H72.2738C74.0746 24.8649 74.9764 23.9631 74.9764 22.1623V9.18823H82.5452Z" fill="#54CCA1"/>
<path d="M106.893 15.6766H93.3582C92.6512 15.6766 92.2991 16.0368 92.2991 16.7571C92.2857 17.4775 92.6379 17.8376 93.3582 17.8376H102.008C105.612 17.8376 107.413 19.6251 107.413 23.2001V23.8271C107.413 28.4826 105.078 30.8117 100.407 30.8117H84.7302V23.7844H99.0649C99.5851 23.7844 99.8493 23.5096 99.8653 22.9627C99.8519 22.4291 99.5851 22.1623 99.0649 22.1623H90.1354C86.5177 22.1623 84.7089 20.3615 84.7089 16.7571L84.7302 15.6766C84.7302 11.3519 87.0646 9.19092 91.7361 9.19092H106.893V15.6766Z" fill="#54CCA1"/>
<path d="M112.276 4.86353H119.304V9.20955L123.628 9.18821V15.6739L119.304 15.6952L119.282 21.0791C119.296 22.8799 120.205 23.7817 122.006 23.7817H124.167L124.189 30.809H119.325C114.64 30.809 112.298 28.648 112.298 24.3233L112.276 15.6739H109.574L109.595 9.18821H112.276V4.86353Z" fill="#54CCA1"/>
<path d="M149.032 32.9727C149.032 37.6575 146.69 40 142.005 40H126.59V32.9727H141.466V30.8117H133.358C128.673 30.8117 126.331 28.4692 126.331 23.7844V15.6766C126.331 11.3519 128.673 9.19092 133.358 9.19092H142.008C146.692 9.19092 149.035 11.3519 149.035 15.6766V32.9727H149.032ZM138.761 24.8862C140.562 24.8729 141.463 23.9712 141.463 22.1836L141.442 17.859C141.442 16.0581 140.548 15.1484 138.761 15.135H136.058C134.257 15.1484 133.356 16.0501 133.356 17.8376V22.1623C133.356 23.9631 134.257 24.8649 136.058 24.8649L138.761 24.8862Z" fill="#54CCA1"/>
<path d="M151.193 15.6766C151.193 11.3519 153.536 9.19092 158.221 9.19092H166.87V15.1377H160.923C159.122 15.1377 158.221 16.0394 158.221 17.8403V30.8143H151.193V15.6766Z" fill="#54CCA1"/>
<path d="M176.058 30.8117C171.373 30.8117 169.031 28.4692 169.031 23.7844V15.6766C169.044 11.3519 171.381 9.19092 176.037 9.19092H191.193V24.8649H192.274V30.8117H176.058ZM181.463 24.8649C183.264 24.8649 184.166 23.9631 184.166 22.1623V17.8376C184.166 16.0368 183.264 15.135 181.463 15.135H178.761C176.973 15.135 176.071 16.0368 176.058 17.8376V22.1623C176.058 23.9631 176.96 24.8649 178.761 24.8649H181.463Z" fill="#54CCA1"/>
<path d="M194.979 23.7844V0H202.006V9.18829H210.135C214.791 9.18829 217.125 11.3493 217.141 15.674V23.7818C217.141 28.4666 214.799 30.809 210.114 30.809H202.006C197.321 30.8117 194.979 28.4693 194.979 23.7844ZM207.411 24.8649C209.212 24.8649 210.114 23.9632 210.114 22.1623V17.8377C210.114 16.0368 209.212 15.1351 207.411 15.1351H204.709C202.921 15.1351 202.02 16.0368 202.006 17.8377V22.1623C202.006 23.9632 202.908 24.8649 204.709 24.8649H207.411Z" fill="#54CCA1"/>
</g>
<defs>
<clipPath id="clip0_22_2098">
<rect width="217.141" height="40" fill="white"/>
</clipPath>
</defs>
</svg>
