<svg width="22" height="22" viewBox="0 0 22 22" fill="none" xmlns="http://www.w3.org/2000/svg">
<path d="M14.4995 6.5625L17.9995 3.0625M19.9995 1.0625L17.9995 3.0625L19.9995 1.0625ZM10.3895 10.6725C10.9059 11.182 11.3163 11.7885 11.5973 12.4573C11.8782 13.126 12.0241 13.8438 12.0266 14.5691C12.029 15.2945 11.8879 16.0132 11.6115 16.6838C11.335 17.3544 10.9286 17.9637 10.4157 18.4766C9.90277 18.9896 9.29346 19.3959 8.62284 19.6724C7.95223 19.9489 7.23354 20.09 6.50817 20.0875C5.78281 20.0851 5.06509 19.9392 4.39633 19.6583C3.72758 19.3773 3.12101 18.9668 2.61154 18.4505C1.60967 17.4132 1.0553 16.0239 1.06783 14.5818C1.08037 13.1397 1.6588 11.7602 2.67854 10.7405C3.69828 9.72075 5.07775 9.14232 6.51984 9.12979C7.96192 9.11726 9.35123 9.67163 10.3885 10.6735L10.3895 10.6725ZM10.3895 10.6725L14.4995 6.5625L10.3895 10.6725ZM14.4995 6.5625L17.4995 9.5625L20.9995 6.0625L17.9995 3.0625L14.4995 6.5625Z" stroke="#C9D3F3" stroke-width="2" stroke-linecap="round" stroke-linejoin="round"/>
</svg>
