<svg width="24" height="24" viewBox="0 0 24 24" fill="none" xmlns="http://www.w3.org/2000/svg">
<path d="M6.50997 7.30652C6.4999 10.2817 8.91152 12.7095 11.8887 12.7187H11.889H11.921C14.9042 12.7187 17.33 10.2929 17.33 7.30969C17.33 4.32649 14.9043 1.89969 11.921 1.89969C8.93688 1.89969 6.51006 4.32632 6.50997 7.30652ZM6.50997 7.30652C6.50997 7.30658 6.50997 7.30664 6.50997 7.30669H6.60997L6.50997 7.30635C6.50997 7.30641 6.50997 7.30647 6.50997 7.30652ZM11.9209 21.9701H11.921C13.6212 21.9701 15.6149 21.8752 17.1861 21.3627C17.9724 21.1061 18.6606 20.7427 19.153 20.2272C19.6477 19.7093 19.94 19.0427 19.94 18.1931C19.94 17.2748 19.5827 16.5738 19.0133 16.0434C18.447 15.5157 17.6739 15.1594 16.8421 14.9176C15.1788 14.434 13.247 14.3989 12.1645 14.3963H12.1642L11.7114 14.3966L11.711 14.3966C10.0235 14.4047 8.08138 14.5164 6.55855 15.0355C5.79639 15.2954 5.13193 15.6596 4.65729 16.1708C4.18049 16.6842 3.9 17.341 3.9 18.1731C3.9 19.0914 4.25743 19.7924 4.82697 20.3228C5.39351 20.8505 6.16679 21.2068 6.99889 21.4486C8.66263 21.9321 10.5949 21.9673 11.6775 21.9699H11.6777L11.9209 21.9701ZM8.13798 7.31002V7.30969C8.13798 5.22396 9.8352 3.52769 11.921 3.52769C14.0058 3.52769 15.702 5.22391 15.702 7.30969C15.702 9.3945 14.0057 11.0917 11.921 11.0917L11.8924 11.0917C11.8923 11.0917 11.8922 11.0917 11.8921 11.0917C9.81544 11.0838 8.13118 9.38872 8.13798 7.31002ZM5.6 18.1731C5.6 17.5165 6.08548 16.9965 7.14473 16.6374C8.20158 16.2792 9.79362 16.0961 11.921 16.0961C14.0478 16.0961 15.6393 16.2809 16.6956 16.6425C17.754 17.0047 18.24 17.5294 18.24 18.1931C18.24 18.8498 17.7547 19.3697 16.6959 19.7288C15.6394 20.087 14.0479 20.2701 11.921 20.2701C9.79366 20.2701 8.20173 20.0853 7.145 19.7237C6.08625 19.3615 5.6 18.8368 5.6 18.1731Z" fill="#C9D3F3" stroke="#C9D3F3" stroke-width="0.2"/>
</svg>
